<?xml version="1.0" encoding="UTF-8"?>
<svg width="704px" height="284px" viewBox="0 0 704 284" version="1.1" xmlns="http://www.w3.org/2000/svg" xmlns:xlink="http://www.w3.org/1999/xlink">
    <!-- Generator: Sketch 52.2 (67145) - http://www.bohemiancoding.com/sketch -->
    <title>Horizontal</title>
    <desc>Created with Sketch.</desc>
    <g id="Horizontal" stroke="none" stroke-width="1" fill="none" fill-rule="evenodd">
        <g id="Group-3">
            <path d="M275.174,97.897 C282.002,97.897 287.584,95.195 291.919,89.792 L300.825,98.966 C293.759,106.922 285.431,110.901 275.842,110.901 C266.252,110.901 258.355,107.873 252.149,101.816 C245.944,95.759 242.842,88.114 242.842,78.881 C242.842,69.647 246.004,61.943 252.328,55.767 C258.651,49.592 266.386,46.504 275.53,46.504 C285.743,46.504 294.294,50.394 301.182,58.172 L292.542,67.97 C288.148,62.507 282.685,59.775 276.153,59.775 C270.928,59.775 266.46,61.483 262.749,64.897 C259.037,68.311 257.182,72.913 257.182,78.703 C257.182,84.492 258.933,89.138 262.437,92.642 C265.94,96.145 270.186,97.897 275.174,97.897" id="Fill-149" fill="#666666"></path>
            <path d="M334.493,94.156 C336.809,97.006 339.927,98.431 343.846,98.431 C347.765,98.431 350.867,96.991 353.153,94.111 C355.439,91.232 356.582,87.298 356.582,82.31 L356.582,47.929 L370.477,47.929 L370.477,82.755 C370.477,91.781 367.983,98.713 362.995,103.553 C358.008,108.392 351.624,110.812 343.846,110.812 C336.067,110.812 329.669,108.377 324.651,103.508 C319.634,98.639 317.125,91.721 317.125,82.755 L317.125,47.929 L331.02,47.929 L331.02,82.31 C331.02,87.298 332.178,91.246 334.493,94.156" id="Fill-150" fill="#666666"></path>
            <polyline id="Fill-151" fill="#666666" points="433.36 47.929 433.36 60.31 402.364 60.31 402.364 73.136 430.242 73.136 430.242 84.982 402.364 84.982 402.364 97.897 434.339 97.897 434.339 110.188 388.469 110.188 388.469 47.929 433.36 47.929"></polyline>
            <polyline id="Fill-152" fill="#666666" points="494.728 47.929 508.623 47.929 508.623 110.188 494.728 110.188 465.068 71.176 465.068 110.188 451.173 110.188 451.173 47.929 464.178 47.929 494.728 88.01 494.728 47.929"></polyline>
            <polyline id="Fill-153" fill="#666666" points="555.651 59.954 555.651 110.188 541.756 110.188 541.756 59.954 524.121 59.954 524.121 47.929 573.287 47.929 573.287 59.954 555.651 59.954"></polyline>
            <path d="M627.708,110.188 L621.918,96.739 L595.821,96.739 L590.032,110.188 L575.246,110.188 L602.145,47.929 L615.594,47.929 L642.493,110.188 L627.708,110.188 Z M608.914,66.456 L601.076,84.537 L616.663,84.537 L608.914,66.456 Z" id="Fill-154" fill="#666666"></path>
            <path d="M676.428,58.707 C674.112,58.707 672.287,59.256 670.951,60.354 C669.615,61.453 668.947,62.908 668.947,64.719 C668.947,66.53 669.763,67.97 671.396,69.039 C673.029,70.107 676.799,71.369 682.708,72.824 C688.616,74.279 693.203,76.461 696.469,79.371 C699.735,82.28 701.368,86.526 701.368,92.107 C701.368,97.689 699.274,102.217 695.088,105.69 C690.902,109.164 685.395,110.901 678.566,110.901 C668.709,110.901 659.832,107.249 651.934,99.945 L660.218,89.792 C666.928,95.67 673.133,98.609 678.833,98.609 C681.386,98.609 683.39,98.06 684.845,96.962 C686.3,95.863 687.027,94.379 687.027,92.508 C687.027,90.638 686.256,89.153 684.712,88.055 C683.168,86.956 680.11,85.843 675.538,84.715 C668.293,82.993 662.994,80.751 659.639,77.99 C656.284,75.229 654.606,70.894 654.606,64.986 C654.606,59.078 656.729,54.52 660.975,51.314 C665.22,48.107 670.52,46.504 676.874,46.504 C681.03,46.504 685.187,47.217 689.343,48.642 C693.5,50.067 697.122,52.086 700.21,54.699 L693.173,64.852 C687.77,60.755 682.188,58.707 676.428,58.707" id="Fill-155" fill="#666666"></path>
            <path d="M281.344,200.034 C289.335,200.034 295.867,196.872 300.939,190.549 L311.362,201.285 C303.093,210.596 293.348,215.252 282.126,215.252 C270.904,215.252 261.662,211.708 254.401,204.62 C247.139,197.533 243.509,188.586 243.509,177.781 C243.509,166.976 247.209,157.96 254.609,150.734 C262.01,143.507 271.06,139.894 281.761,139.894 C293.713,139.894 303.719,144.445 311.779,153.548 L301.669,165.013 C296.527,158.62 290.134,155.424 282.491,155.424 C276.376,155.424 271.147,157.422 266.804,161.417 C262.461,165.413 260.29,170.798 260.29,177.573 C260.29,184.348 262.34,189.785 266.439,193.885 C270.539,197.984 275.507,200.034 281.344,200.034" id="Fill-156" fill="#666666"></path>
            <polyline id="Fill-157" fill="#666666" points="328.352 214.418 328.352 141.561 344.611 141.561 344.611 199.93 375.672 199.93 375.672 214.418 328.352 214.418"></polyline>
            <path d="M450.925,214.418 L444.15,198.679 L413.611,198.679 L406.836,214.418 L389.534,214.418 L421.011,141.561 L436.75,141.561 L468.227,214.418 L450.925,214.418 Z M428.933,163.241 L419.761,184.4 L438.001,184.4 L428.933,163.241 Z" id="Fill-158" fill="#666666"></path>
            <path d="M540.979,165.743 C540.979,177.416 536.359,184.956 527.117,188.36 L545.565,214.418 L525.553,214.418 L509.398,191.175 L498.141,191.175 L498.141,214.418 L481.881,214.418 L481.881,141.561 L509.502,141.561 C520.828,141.561 528.906,143.472 533.735,147.294 C538.565,151.116 540.979,157.265 540.979,165.743 Z M510.023,177.104 C515.582,177.104 519.369,176.2 521.384,174.394 C523.399,172.587 524.407,169.721 524.407,165.795 C524.407,161.869 523.365,159.176 521.28,157.717 C519.195,156.258 515.547,155.528 510.336,155.528 L498.141,155.528 L498.141,177.104 L510.023,177.104 Z" id="Fill-159" fill="#666666"></path>
            <path d="M618.943,214.418 L612.168,198.679 L581.629,198.679 L574.854,214.418 L557.552,214.418 L589.029,141.561 L604.768,141.561 L636.245,214.418 L618.943,214.418 Z M596.951,163.241 L587.778,184.4 L606.019,184.4 L596.951,163.241 Z" id="Fill-160" fill="#666666"></path>
            <path d="M673.872,154.173 C671.162,154.173 669.025,154.816 667.462,156.101 C665.898,157.387 665.117,159.089 665.117,161.209 C665.117,163.328 666.072,165.013 667.983,166.264 C669.894,167.514 674.306,168.991 681.22,170.693 C688.134,172.396 693.502,174.95 697.323,178.354 C701.145,181.759 703.056,186.727 703.056,193.259 C703.056,199.791 700.607,205.089 695.708,209.154 C690.809,213.219 684.364,215.252 676.373,215.252 C664.839,215.252 654.45,210.978 645.209,202.431 L654.902,190.549 C662.754,197.428 670.015,200.868 676.686,200.868 C679.674,200.868 682.019,200.225 683.721,198.94 C685.424,197.654 686.275,195.917 686.275,193.728 C686.275,191.539 685.372,189.802 683.565,188.517 C681.759,187.231 678.18,185.928 672.83,184.608 C664.352,182.593 658.151,179.97 654.225,176.739 C650.299,173.508 648.336,168.435 648.336,161.521 C648.336,154.607 650.82,149.274 655.788,145.522 C660.756,141.77 666.958,139.894 674.393,139.894 C679.257,139.894 684.121,140.728 688.985,142.395 C693.849,144.063 698.088,146.425 701.701,149.483 L693.467,161.365 C687.144,156.57 680.612,154.173 673.872,154.173" id="Fill-161" fill="#666666"></path>
            <path d="M141.994,0.886 C173.165,0.886 201.974,10.976 225.352,28.057 L204.4,53.387 C186.74,40.975 165.22,33.683 141.994,33.683 C111.612,33.683 84.148,46.158 64.43,66.258 L41.263,43.042 C66.915,17.022 102.568,0.886 141.994,0.886" id="Fill-172" fill="#81A9C1"></path>
            <path d="M59.886,71.172 C43.347,90.237 33.337,115.119 33.337,142.339 C33.337,169.031 42.968,193.471 58.937,212.386 L35.682,235.64 C13.809,210.737 0.539,178.089 0.539,142.339 C0.539,106.146 14.14,73.134 36.499,48.117 L59.886,71.172" id="Fill-173" fill="#92BAD8"></path>
            <path d="M63.488,217.457 C83.268,238.124 111.128,250.996 141.994,250.996 C170.603,250.996 196.625,239.934 216.028,221.86 L241.66,242.709 C216.091,268.102 180.876,283.793 141.994,283.793 C102.071,283.793 66.016,267.248 40.297,240.648 L63.488,217.457" id="Fill-174" fill="#BEDAF0"></path>
            <path d="M198.209,65.226 C182.441,53.711 163.013,46.91 141.993,46.91 C90.518,46.91 48.569,87.668 46.641,138.671 L79.832,138.671 C81.731,105.988 108.834,80.068 141.993,80.068 C154.98,80.068 167.037,84.046 177.017,90.847 L198.209,65.226" id="Fill-175" fill="#EDC943"></path>
            <path d="M195.263,198.844 L183.195,189.027 C172.215,198.723 157.793,204.611 141.993,204.611 C108.742,204.611 81.578,178.547 79.816,145.735 L46.63,145.735 C48.419,196.865 90.426,237.769 141.993,237.769 C168.181,237.769 191.903,227.217 209.146,210.137 L195.263,198.844" id="Fill-176" fill="#F6DD52"></path>
        </g>
    </g>
</svg>