<?xml version="1.0" encoding="UTF-8"?>
<svg width="339px" height="455px" viewBox="0 0 339 455" version="1.1" xmlns="http://www.w3.org/2000/svg" xmlns:xlink="http://www.w3.org/1999/xlink">
    <!-- Generator: Sketch 52.2 (67145) - http://www.bohemiancoding.com/sketch -->
    <title>Vertical blanco</title>
    <desc>Created with Sketch.</desc>
    <g id="Vertical-blanco" stroke="none" stroke-width="1" fill="none" fill-rule="evenodd">
        <g id="Group-4" fill="#FFFFFF">
            <g id="Group-2" transform="translate(0.000000, 323.000000)">
                <path d="M25.16,39.994 C30.474,39.994 34.818,37.891 38.191,33.686 L45.122,40.826 C39.624,47.018 33.143,50.114 25.68,50.114 C18.217,50.114 12.072,47.757 7.243,43.044 C2.414,38.33 0,32.381 0,25.196 C0,18.01 2.46,12.015 7.381,7.209 C12.303,2.403 18.321,-1.13686838e-13 25.437,-1.13686838e-13 C33.385,-1.13686838e-13 40.039,3.027 45.4,9.08 L38.676,16.705 C35.257,12.454 31.006,10.328 25.923,10.328 C21.856,10.328 18.379,11.657 15.491,14.313 C12.603,16.97 11.159,20.552 11.159,25.057 C11.159,29.562 12.522,33.178 15.248,35.904 C17.975,38.631 21.279,39.994 25.16,39.994" id="Fill-231-Copy"></path>
                <path d="M68.516,36.974 C70.318,39.192 72.744,40.301 75.794,40.301 C78.844,40.301 81.258,39.18 83.037,36.939 C84.816,34.698 85.706,31.637 85.706,27.755 L85.706,1 L96.518,1 L96.518,28.102 C96.518,35.125 94.578,40.52 90.696,44.286 C86.815,48.052 81.847,49.935 75.794,49.935 C69.741,49.935 64.762,48.041 60.857,44.252 C56.952,40.463 55,35.079 55,28.102 L55,1 L65.813,1 L65.813,27.755 C65.813,31.637 66.714,34.71 68.516,36.974" id="Fill-232-Copy"></path>
                <polyline id="Fill-233-Copy" points="141.934 1 141.934 10.635 117.813 10.635 117.813 20.616 139.508 20.616 139.508 29.835 117.813 29.835 117.813 39.885 142.696 39.885 142.696 49.45 107 49.45 107 1 141.934 1"></polyline>
                <polyline id="Fill-234-Copy" points="185.894 1 196.707 1 196.707 49.45 185.894 49.45 162.812 19.091 162.812 49.45 152 49.45 152 1 162.119 1 185.894 32.191 185.894 1"></polyline>
                <polyline id="Fill-235-Copy" points="229.537 10.358 229.537 49.45 218.724 49.45 218.724 10.358 205 10.358 205 1 243.261 1 243.261 10.358 229.537 10.358"></polyline>
                <path d="M282.826,49.45 L278.32,38.984 L258.012,38.984 L253.506,49.45 L242,49.45 L262.933,1 L273.399,1 L294.332,49.45 L282.826,49.45 Z M268.201,15.417 L262.101,29.488 L274.231,29.488 L268.201,15.417 Z" id="Fill-236-Copy"></path>
                <path d="M317.061,9.496 C315.259,9.496 313.838,9.924 312.798,10.779 C311.759,11.633 311.239,12.766 311.239,14.175 C311.239,15.584 311.874,16.705 313.145,17.537 C314.416,18.368 317.35,19.35 321.948,20.482 C326.545,21.614 330.115,23.313 332.657,25.577 C335.198,27.841 336.469,31.145 336.469,35.489 C336.469,39.832 334.84,43.356 331.582,46.059 C328.324,48.762 324.039,50.114 318.725,50.114 C311.054,50.114 304.146,47.272 298,41.588 L304.446,33.686 C309.668,38.261 314.497,40.548 318.933,40.548 C320.92,40.548 322.479,40.121 323.611,39.266 C324.743,38.411 325.309,37.256 325.309,35.801 C325.309,34.345 324.709,33.19 323.507,32.335 C322.306,31.48 319.926,30.614 316.368,29.736 C310.731,28.396 306.606,26.651 303.996,24.502 C301.385,22.354 300.079,18.981 300.079,14.383 C300.079,9.785 301.731,6.239 305.035,3.743 C308.339,1.248 312.463,-1.13686838e-13 317.408,-1.13686838e-13 C320.642,-1.13686838e-13 323.877,0.555 327.112,1.664 C330.346,2.773 333.165,4.344 335.568,6.377 L330.092,14.279 C325.887,11.09 321.543,9.496 317.061,9.496" id="Fill-237-Copy"></path>
                <path d="M30.443,119.801 C36.661,119.801 41.744,117.34 45.692,112.42 L53.803,120.774 C47.368,128.02 39.784,131.643 31.051,131.643 C22.318,131.643 15.127,128.885 9.476,123.37 C3.825,117.854 1,110.892 1,102.484 C1,94.075 3.879,87.059 9.638,81.435 C15.397,75.812 22.44,73 30.767,73 C40.068,73 47.855,76.542 54.127,83.625 L46.26,92.547 C42.258,87.573 37.283,85.085 31.335,85.085 C26.577,85.085 22.508,86.64 19.128,89.749 C15.748,92.858 14.059,97.049 14.059,102.321 C14.059,107.594 15.654,111.825 18.844,115.015 C22.035,118.206 25.901,119.801 30.443,119.801" id="Fill-238-Copy"></path>
                <polyline id="Fill-239-Copy" points="63 130.696 63 74 75.654 74 75.654 119.422 99.825 119.422 99.825 130.696 63 130.696"></polyline>
                <path d="M153.774,130.696 L148.502,118.448 L124.737,118.448 L119.464,130.696 L106,130.696 L130.495,74 L142.743,74 L167.239,130.696 L153.774,130.696 Z M136.66,90.871 L129.522,107.336 L143.717,107.336 L136.66,90.871 Z" id="Fill-240-Copy"></path>
                <path d="M219.99,92.817 C219.99,101.902 216.394,107.769 209.202,110.418 L223.558,130.696 L207.985,130.696 L195.413,112.608 L186.653,112.608 L186.653,130.696 L174,130.696 L174,74 L195.494,74 C204.308,74 210.594,75.487 214.352,78.461 C218.111,81.435 219.99,86.22 219.99,92.817 Z M195.9,101.658 C200.226,101.658 203.173,100.955 204.741,99.549 C206.309,98.144 207.093,95.913 207.093,92.858 C207.093,89.803 206.282,87.707 204.66,86.572 C203.037,85.436 200.199,84.868 196.143,84.868 L186.653,84.868 L186.653,101.658 L195.9,101.658 Z" id="Fill-241-Copy"></path>
                <path d="M276.774,130.696 L271.502,118.448 L247.736,118.448 L242.464,130.696 L229,130.696 L253.495,74 L265.743,74 L290.238,130.696 L276.774,130.696 Z M259.66,90.871 L252.522,107.336 L266.716,107.336 L259.66,90.871 Z" id="Fill-242-Copy"></path>
                <path d="M315.306,84.112 C313.197,84.112 311.534,84.612 310.318,85.612 C309.101,86.613 308.493,87.938 308.493,89.587 C308.493,91.236 309.236,92.547 310.723,93.521 C312.21,94.494 315.644,95.643 321.024,96.968 C326.405,98.293 330.582,100.28 333.556,102.93 C336.53,105.579 338.017,109.446 338.017,114.529 C338.017,119.611 336.111,123.735 332.299,126.898 C328.486,130.061 323.471,131.643 317.253,131.643 C308.276,131.643 300.192,128.317 293,121.666 L300.544,112.42 C306.654,117.773 312.305,120.45 317.496,120.45 C319.821,120.45 321.646,119.949 322.971,118.949 C324.296,117.949 324.958,116.597 324.958,114.894 C324.958,113.19 324.255,111.838 322.849,110.838 C321.443,109.838 318.658,108.824 314.495,107.796 C307.898,106.228 303.072,104.187 300.016,101.672 C296.961,99.158 295.434,95.211 295.434,89.83 C295.434,84.45 297.367,80.3 301.233,77.38 C305.099,74.46 309.926,73 315.711,73 C319.497,73 323.282,73.649 327.067,74.946 C330.852,76.244 334.151,78.083 336.962,80.462 L330.555,89.709 C325.634,85.977 320.551,84.112 315.306,84.112" id="Fill-243-Copy"></path>
            </g>
            <g id="Group" transform="translate(49.000000, 0.000000)">
                <path d="M141.731,1.13686838e-13 C172.902,1.13686838e-13 201.711,10.09 225.089,27.171 L204.137,52.501 C186.477,40.089 164.957,32.797 141.731,32.797 C111.349,32.797 83.885,45.272 64.167,65.372 L41,42.156 C66.652,16.136 102.305,1.13686838e-13 141.731,1.13686838e-13" id="Fill-244-Copy"></path>
                <path d="M59.347,71.055 C42.808,90.12 32.798,115.002 32.798,142.222 C32.798,168.914 42.429,193.354 58.398,212.269 L35.143,235.523 C13.27,210.62 0,177.972 0,142.222 C0,106.029 13.601,73.017 35.96,48 L59.347,71.055" id="Fill-245-Copy"></path>
                <path d="M63.191,217 C82.971,237.667 110.831,250.539 141.697,250.539 C170.306,250.539 196.328,239.477 215.731,221.403 L241.363,242.252 C215.794,267.645 180.579,283.336 141.697,283.336 C101.774,283.336 65.719,266.791 40,240.191 L63.191,217" id="Fill-246-Copy"></path>
                <path d="M197.568,64.316 C181.8,52.801 162.372,46 141.352,46 C89.877,46 47.928,86.758 46,137.761 L79.191,137.761 C81.09,105.078 108.193,79.158 141.352,79.158 C154.339,79.158 166.396,83.136 176.376,89.937 L197.568,64.316" id="Fill-247-Copy"></path>
                <path d="M194.633,198.109 L182.565,188.292 C171.585,197.988 157.163,203.876 141.363,203.876 C108.112,203.876 80.948,177.812 79.186,145 L46,145 C47.789,196.13 89.796,237.034 141.363,237.034 C167.551,237.034 191.273,226.482 208.516,209.402 L194.633,198.109" id="Fill-248-Copy"></path>
            </g>
        </g>
    </g>
</svg>