<svg style="position: absolute; width: 0; height: 0; overflow: hidden;" version="1.1" xmlns="http://www.w3.org/2000/svg"
     xmlns:xlink="http://www.w3.org/1999/xlink">
  <defs>

    <symbol id="star-empty" viewBox="0 0 34 32">
      <title>star-empty</title>
      <path class="path-star-empty"
            d="M1,1 L1,9.5 L1,9 L8.4198039,9 L8.8198039,11 L14,11 L14,3 L8.5801961,3 L8.1801961,1 L1,1 Z M9.4,2 L15,2 L15,12 L8,12 L7.6,10 L2,10 L2,17 L0,17 L0,0 L9,0 L9.4,2 Z"/>
    </symbol>

    <symbol id="star-half" viewBox="0 0 34 32">
      <title>star-half</title>
      <path class="path-star-half"
            d="M1,1 L1,5 L8.4198039,5 L8.8198039,7 L14,7 L14,3 L8.5801961,3 L8.1801961,1 L1,1 Z M9.4,2 L15,2 L15,12 L8,12 L7.6,10 L2,10 L2,17 L0,17 L0,0 L9,0 L9.4,2 Z"/>
    </symbol>

    <symbol id="star-filled" viewBox="0 0 34 32">
      <title>star-filled</title>
      <path class="path-star-filled"
            d="M9.4 2 9 0 0 0 0 17 2 17 2 10 7.6 10 8 12 15 12 15 2z"/>
    </symbol>

  </defs>
</svg>
